<?xml version="1.0" encoding="utf-8"?>
<!-- Generator: Adobe Illustrator 22.1.0, SVG Export Plug-In . SVG Version: 6.00 Build 0)  -->
<svg version="1.1" id="Layer_1" xmlns="http://www.w3.org/2000/svg" xmlns:xlink="http://www.w3.org/1999/xlink" x="0px" y="0px"
	 viewBox="0 0 224 242" enable-background="new 0 0 224 242" xml:space="preserve">
<g>
	<path display="none" fill="#37B838" d="M61,220c3.662-5.682,4.51-11.938,4.429-18.601c-0.208-16.996,0.035-33.997-0.159-50.993
		c-0.045-3.923,1.038-5.15,5.057-5.035c10.157,0.29,20.329,0.175,30.492,0.013c2.646-0.042,4.226,0.913,5.846,2.91
		c13.952,17.199,28.009,34.313,42.068,51.425c1.12,1.363,1.913,3.112,3.713,3.801c1.359-0.937,1.199-2.376,1.466-3.626
		c2.943-13.785,13.686-22.889,27.863-23.655c1.424-0.077,3.426,0.7,4.136-0.762c0.871-1.794-1.217-2.851-2.19-4.05
		c-7.974-9.829-15.914-19.691-24.126-29.32c-2.376-2.786-2.228-3.816,0.932-5.8c28.243-17.73,38.987-51.492,25.827-81.014
		c-5.065-11.362-13.103-20.37-23.157-27.634c-0.92-0.665-2.702-0.766-2.199-2.661c11.167,0,22.336,0.134,33.498-0.089
		c2.993-0.06,3.591,0.606,3.585,3.589C197.969,81.667,198,134.833,198,188c-0.87,0.228-1.552-0.057-2.281-0.583
		c-11.208-8.089-27.335-4.037-33.047,8.48c-3.82,8.372-2.574,16.466,2.327,24.103C130.333,220,95.667,220,61,220z"/>
	<rect x="28.261" y="60.75" fill="#DE4F15" width="124.225" height="45.5"/>
	<path fill="#37B838" d="M165,220c-4.901-7.637-6.147-15.731-2.327-24.103c5.712-12.517,21.839-16.569,33.047-8.48
		c0.729,0.526,1.718,1.396,2.281,2.583c0,9.833-0.083,17.668,0.065,27.499c0.033,2.153-0.414,2.597-2.566,2.566
		C185.334,219.919,175.167,220,165,220z"/>
	<path fill="#FFFFFF" d="M61,220c-9.47,0-18.944-0.173-28.406,0.089c-3.556,0.098-4.726-0.492-4.707-4.47
		C28.074,176.08,28,135.54,28,96c4,4.016,8.694,3.888,13.433,3.886c29.33-0.009,58.661,0.222,87.99,0.088
		c7.79-0.036,14.438-5.859,16.412-13.151c3.391-12.524-4.701-23.92-17.751-24.178c-18.159-0.359-36.329-0.172-54.494-0.208
		c-8.12-0.016-8.12-0.003-8.238,8.162C65.097,88.135,47.489,98.585,31.994,90.45C30.768,89.806,29.667,89,28,88
		c0-20.116,0.101-39.232-0.1-59.346c-0.033-3.339,1.022-3.723,3.928-3.717C74.885,25.028,116.727,25,159.785,25
		c0.019,0.014,0.058,0.043,0.108,0.079c0,0,1.667,1.226,3.306,2.582c16.786,13.881,23.157,27.634,23.157,27.634
		c13.16,29.522,2.416,63.283-25.827,81.014c-3.16,1.984-3.308,3.014-0.932,5.8c8.212,9.629,16.151,19.491,24.126,29.32
		c0.972,1.198,3.061,2.256,2.189,4.049c-0.71,1.462-2.713,0.686-4.136,0.762c-14.176,0.766-24.919,9.87-27.863,23.655
		c-0.267,1.251-0.107,2.689-1.466,3.626c-1.8-0.69-2.594-2.438-3.713-3.801c-14.059-17.112-28.116-34.226-42.068-51.425
		c-1.62-1.997-3.2-2.952-5.846-2.91c-10.163,0.162-20.335,0.277-30.492-0.013c-4.019-0.115-5.101,1.111-5.057,5.035
		c0.193,16.996-0.049,33.997,0.159,50.993C65.51,208.062,64.662,214.318,61,220z"/>
</g>
</svg>
